HIERARCHY
ROOT Hips
{
	OFFSET 0.000000 0.000000 0.000000 
	CHANNELS 6 Xposition Yposition Zposition Zrotation Yrotation Xrotation
	JOINT LeftUpLeg
	{
		OFFSET 1.363060 -1.794630 0.839290 
		CHANNELS 3 Zrotation Yrotation Xrotation
		JOINT LeftLeg
		{
			OFFSET 2.448110 -6.726130 0.000000 
			CHANNELS 3 Zrotation Yrotation Xrotation
			JOINT LeftFoot
			{
				OFFSET 2.562200 -7.039590 0.000000 
				CHANNELS 3 Zrotation Yrotation Xrotation
				JOINT LeftToeBase
				{
					OFFSET 0.157640 -0.433110 2.322550 
					CHANNELS 3 Zrotation Yrotation Xrotation
					End Site
					{
						OFFSET 0.000000 0.000000 0.000000 
					}
				}
			}
		}
	}
	JOINT RightUpLeg
	{
		OFFSET -1.305520 -1.794630 0.839290 
		CHANNELS 3 Zrotation Yrotation Xrotation
		JOINT RightLeg
		{
			OFFSET -2.542530 -6.985550 0.000000 
			CHANNELS 3 Zrotation Yrotation Xrotation
			JOINT RightFoot
			{
				OFFSET -2.568260 -7.056230 0.000000 
				CHANNELS 3 Zrotation Yrotation Xrotation
				JOINT RightToeBase
				{
					OFFSET -0.164730 -0.452590 2.363150 
					CHANNELS 3 Zrotation Yrotation Xrotation
					End Site
					{
						OFFSET 0.000000 0.000000 0.000000 
					}
				}
			}
		}
	}
	JOINT Spine
	{
		OFFSET 0.028270 2.035590 -0.193380 
		CHANNELS 3 Zrotation Yrotation Xrotation
		JOINT Spine1
		{
			OFFSET 0.056720 2.048850 -0.042750 
			CHANNELS 3 Zrotation Yrotation Xrotation
			JOINT Neck1
			{
				OFFSET -0.054170 1.746240 0.172020 
				CHANNELS 3 Zrotation Yrotation Xrotation
				JOINT Head
				{
					OFFSET 0.104070 1.761360 -0.123970 
					CHANNELS 3 Zrotation Yrotation Xrotation
					End Site
					{
						OFFSET 0.000000 0.000000 0.000000 
					}
				}
			}
			JOINT LeftArm
			{
				OFFSET 3.362410 1.200890 -0.311210 
				CHANNELS 3 Zrotation Yrotation Xrotation
				JOINT LeftForeArm
				{
					OFFSET 4.983000 -0.000000 -0.000000 
					CHANNELS 3 Zrotation Yrotation Xrotation
					JOINT LeftHand
					{
						OFFSET 3.483560 -0.000000 -0.000000 
						CHANNELS 3 Zrotation Yrotation Xrotation
						JOINT LeftHandIndex1
						{
							OFFSET 0.715260 -0.000000 -0.000000 
							CHANNELS 3 Zrotation Yrotation Xrotation
							End Site
							{
								OFFSET 0.000000 0.000000 0.000000 
							}
						}
					}
				}
			}
			JOINT RightArm
			{
				OFFSET -3.136600 1.374050 -0.404650 
				CHANNELS 3 Zrotation Yrotation Xrotation
				JOINT RightForeArm
				{
					OFFSET -5.241900 -0.000000 -0.000000 
					CHANNELS 3 Zrotation Yrotation Xrotation
					JOINT RightHand
					{
						OFFSET -3.444170 -0.000000 -0.000000 
						CHANNELS 3 Zrotation Yrotation Xrotation
						JOINT RightHandIndex1
						{
							OFFSET -0.622530 -0.000000 -0.000000 
							CHANNELS 3 Zrotation Yrotation Xrotation
							End Site
							{
								OFFSET 0.000000 0.000000 0.000000 
							}
						}
					}
				}
			}
		}
	}
}
MOTION
Frames: 10
Frame Time: 0.041667
-5.075906 17.845732 -0.296219 0.875145 72.653029 -0.685269 -7.655524 -9.112522 -6.986991 2.752725 13.399109 41.158150 6.712683 -20.039746 11.391439 3.823800 -11.922200 -35.457300 -3.700062 20.444626 -22.249869 4.042067 -4.292003 14.733001 -9.154489 18.576516 44.859625 -1.743800 8.310700 -23.662000 1.816255 -7.760736 -1.324799 1.083622 -4.402657 -4.736729 4.953055 11.578697 16.028452 -2.562500 7.000600 3.450500 -57.065334 -17.897269 8.816381 62.371128 -49.778823 -44.104538 0.445669 -2.515354 -25.118374 -7.125000 0.000000 0.000000 64.388661 -25.866064 -8.093530 -20.851714 31.457540 -9.780399 1.646357 4.737406 -5.926526 7.125000 0.000000 0.000000 
-5.315985 17.877735 -0.479946 1.392716 70.877501 0.095296 -8.064755 -8.415511 -7.607048 1.536733 12.549592 39.039881 6.303703 -22.509940 20.053240 1.019700 6.424100 18.019900 -3.095336 18.340351 -23.410501 4.096524 -4.171737 14.153190 -9.053022 16.605145 46.968949 -1.675000 8.153500 -23.181400 1.928593 -8.333229 -1.450331 1.670643 -4.694294 -5.279339 4.197516 11.995673 16.091545 -2.813400 7.239000 3.270100 -57.451531 -17.404189 7.958656 61.746802 -49.603773 -43.576192 0.391446 -2.529522 -25.532759 -7.125000 0.000000 0.000000 64.882652 -26.749962 -8.078393 -21.683176 32.243785 -10.322140 1.766213 4.661083 -4.752124 7.125000 0.000000 0.000000 
-5.550217 17.898681 -0.661654 2.687262 69.047665 1.676342 -8.777342 -7.802309 -8.179294 1.239290 12.164069 37.623185 6.665348 -23.004749 18.095007 1.105700 6.681200 18.774300 -2.428849 16.207733 -24.718817 3.916308 -4.450892 14.145810 -8.625524 12.574343 46.888441 -2.194700 9.260300 -26.613000 2.000911 -8.845514 -1.603518 2.217138 -4.940093 -5.826010 3.608967 12.373815 16.054770 -3.228000 7.464000 3.375100 -57.795874 -16.759769 7.193595 61.329701 -49.503041 -43.263590 0.372180 -2.568974 -26.448473 -7.125000 0.000000 0.000000 65.359026 -27.268393 -8.227173 -22.285052 32.750496 -10.691333 1.929347 4.495173 -2.916459 7.125000 0.000000 0.000000 
-5.761483 17.917288 -0.833899 2.739908 66.646519 2.178449 -9.145863 -6.842691 -9.095390 1.244322 12.008242 36.612342 7.238613 -22.390788 13.890295 0.364400 3.878000 10.733600 -1.474473 15.474148 -25.484310 3.511199 -5.168589 15.166783 -7.599291 8.310747 42.933658 -3.676600 11.717100 -34.738400 2.057773 -9.067619 -1.682835 2.465300 -5.030469 -6.005653 3.011463 12.779931 15.936898 -3.592300 7.679600 3.436500 -58.114433 -16.111820 6.315541 61.198644 -49.505998 -43.251591 0.398910 -2.602919 -27.293585 -7.125000 0.000000 0.000000 65.824163 -27.434499 -8.159683 -22.950713 33.315484 -11.122342 2.110941 4.379620 -1.061843 7.125000 0.000000 0.000000 
-5.976363 17.931216 -1.000296 2.744402 64.094509 2.594769 -9.505541 -5.801641 -10.516251 1.158983 11.944669 36.304134 7.243044 -21.645851 13.823113 0.662500 5.205800 14.496500 -0.899910 15.999109 -25.817728 2.912412 -6.139697 16.727341 -6.040228 3.278477 39.639642 -3.050900 10.777100 -31.531600 2.080606 -9.208175 -1.700730 2.574910 -5.070844 -5.877292 2.553298 13.254551 15.821772 -3.780500 7.902400 3.553300 -58.350672 -15.541731 5.208952 61.197377 -49.540164 -43.385841 0.421277 -2.606026 -27.837185 -7.125000 0.000000 0.000000 66.375047 -27.105283 -7.775815 -23.771219 33.959194 -11.646775 2.178506 4.235871 0.221083 7.125000 0.000000 0.000000 
-6.196454 17.923561 -1.159888 2.792841 61.687454 2.996683 -9.893724 -5.306083 -11.841543 1.125207 11.976401 36.305284 7.043337 -20.160318 14.062245 0.895700 6.032000 16.877300 -0.234733 16.666786 -26.134615 2.006095 -7.528602 19.257090 -3.678584 -2.513505 34.917029 -2.057100 8.984100 -25.745600 2.006336 -9.228447 -1.602773 2.190766 -5.059038 -5.302296 2.269676 13.609084 15.730749 -3.837300 8.049300 3.682300 -58.170314 -15.341459 4.265040 61.204901 -49.564795 -43.495169 0.427343 -2.599332 -28.011388 -7.125000 0.000000 0.000000 67.485400 -26.064144 -8.031524 -24.448759 34.390718 -12.035806 2.187902 4.042435 1.185199 7.125000 0.000000 0.000000 
-6.405912 17.930259 -1.306828 0.389490 58.730044 1.124563 -9.196154 -4.279945 -13.209973 1.364614 12.147006 36.465682 7.005608 -17.528945 11.919138 0.111000 2.148500 5.916300 1.840788 17.514826 -26.442865 1.051451 -8.983263 22.617536 -1.175672 -6.954602 29.301758 -1.642800 8.078700 -22.953200 1.873405 -8.638401 -1.303760 0.780011 -4.761578 -4.194981 1.934529 13.735613 15.545673 -3.942700 8.066700 3.732200 -57.521082 -15.605777 3.678503 61.118388 -49.562870 -43.431514 0.443664 -2.602711 -27.696580 -7.125000 0.000000 0.000000 69.345408 -24.600206 -8.940034 -25.137285 34.808865 -12.430705 2.232285 3.889817 1.925951 7.125000 0.000000 0.000000 
-6.581347 17.976936 -1.479392 4.025407 56.224975 4.271169 -11.510564 -4.062860 -13.969174 1.412100 12.236027 36.538361 6.348773 -14.710174 9.513337 0.000100 -0.066000 -0.181300 1.121232 16.863266 -27.026236 0.046563 -10.361618 25.992556 0.147926 -9.044442 25.828001 -1.333400 7.311900 -20.642700 2.072011 -9.534432 -1.910750 3.132385 -5.050320 -6.773760 1.338567 14.874241 15.645782 -4.254600 8.708100 3.910000 -59.743801 -11.808266 1.853189 61.884059 -49.973278 -44.575929 0.511522 -2.521655 -27.122172 -7.125000 0.000000 0.000000 67.210909 -25.197997 -5.009811 -25.880265 35.382794 -12.949379 2.273909 3.861575 1.886465 7.125000 0.000000 0.000000 
-6.744979 18.041687 -1.644087 3.844516 53.119886 4.122315 -12.070193 -3.190564 -14.770900 1.370015 12.210109 36.226537 5.804264 -12.158197 8.304596 0.023000 -0.978500 -2.689700 2.025435 16.928429 -27.389958 -0.872797 -11.615360 29.763327 0.840146 -9.398015 22.664787 -1.157900 6.831600 -19.217400 2.003315 -9.235935 -1.849031 2.798486 -4.872730 -6.743785 0.911294 15.409484 15.495678 -4.369400 8.949000 3.947800 -60.233126 -10.803477 0.889710 61.930137 -50.065401 -44.709916 0.521270 -2.495269 -26.766523 -7.125000 0.000000 0.000000 67.443875 -24.055760 -3.644354 -26.646364 35.890714 -13.447122 2.322263 3.754491 2.267788 7.125000 0.000000 0.000000 
-6.890643 18.103886 -1.805487 3.108665 49.769542 3.602697 -12.271120 -2.218096 -15.489639 1.213899 12.063682 35.532819 5.226635 -9.732743 7.530731 0.031300 -1.141200 -3.137400 3.181401 17.020761 -27.698766 -1.788798 -12.782899 33.770941 0.826452 -8.155114 19.799463 -1.089900 6.634600 -18.637400 1.947194 -8.770282 -1.780018 2.350552 -4.616733 -6.727997 0.596669 15.933316 15.392931 -4.405100 9.188200 3.910200 -60.813946 -9.762736 0.007758 61.964315 -50.162293 -44.798523 0.532932 -2.479849 -26.707351 -7.125000 0.000000 0.000000 67.446652 -22.732183 -1.714937 -27.330915 36.334731 -13.894114 2.380527 3.651182 2.673460 7.125000 0.000000 0.000000 
